<?xml version="1.0" standalone="no"?>
<!DOCTYPE svg PUBLIC "-//W3C//DTD SVG 20010904//EN"
 "http://www.w3.org/TR/2001/REC-SVG-20010904/DTD/svg10.dtd">
<svg version="1.0" xmlns="http://www.w3.org/2000/svg"
 width="474.000000pt" height="474.000000pt" viewBox="0 0 474.000000 474.000000"
 preserveAspectRatio="xMidYMid meet">

<g transform="translate(0.000000,474.000000) scale(0.100000,-0.100000)"
fill="#FFFFFF" stroke="none">
<path d="M2265 4492 c-33 -16 -76 -45 -96 -63 -34 -32 -41 -34 -105 -35 -217
-1 -327 -222 -197 -392 l26 -34 -42 -132 c-39 -125 -92 -333 -106 -423 -4 -24
-9 -43 -12 -43 -2 0 -71 21 -151 46 -338 105 -567 147 -802 148 -181 1 -238
-8 -331 -55 -92 -46 -139 -119 -139 -218 0 -50 38 -168 76 -237 37 -68 127
-193 183 -254 l46 -50 70 11 c39 7 71 13 72 13 1 1 -53 58 -120 126 -224 229
-308 398 -247 497 88 145 510 106 1090 -101 238 -84 233 -82 226 -116 -12 -60
-29 -250 -23 -256 7 -7 153 12 168 22 5 3 9 24 9 47 0 23 3 66 7 95 7 62 -7
64 180 -21 73 -32 130 -63 127 -68 -7 -11 -43 -16 281 35 235 37 291 49 347
75 76 35 88 37 88 17 0 -22 10 -25 70 -15 104 16 102 15 98 62 l-3 41 70 29
c239 97 609 204 810 233 133 20 291 15 350 -10 55 -23 94 -63 101 -103 5 -29
9 -33 28 -27 30 9 30 10 17 53 -17 59 -96 126 -179 152 -225 71 -622 24 -1100
-129 -84 -27 -125 -36 -127 -29 -3 7 -14 58 -25 114 -84 412 -230 753 -390
913 -73 72 -136 103 -220 108 -56 3 -74 -1 -125 -26z m217 -54 c140 -99 284
-475 358 -933 11 -71 23 -144 25 -161 l5 -31 -117 -48 c-65 -27 -175 -74 -246
-106 l-128 -58 -112 51 c-61 28 -170 74 -242 104 l-130 53 3 33 c9 103 73 430
107 553 5 17 15 20 68 21 72 2 121 21 173 66 101 89 100 258 -2 348 -40 35
-37 52 21 96 74 56 150 60 217 12z"/>
<path d="M4416 3239 c-4 -19 -22 -162 -41 -319 -19 -157 -37 -300 -41 -319
l-5 -34 93 8 c51 4 95 8 97 10 2 2 12 51 22 108 23 128 73 305 128 451 23 60
39 112 36 114 -3 3 -68 8 -144 10 l-140 5 -5 -34z"/>
<path d="M4085 3180 c-11 -5 -99 -34 -196 -65 l-175 -55 -18 -153 c-22 -186
-64 -438 -111 -667 -20 -95 -34 -174 -32 -176 1 -2 65 15 140 38 130 39 137
42 137 67 0 14 3 42 6 62 5 32 11 38 44 48 60 18 60 18 60 -70 0 -61 3 -80 13
-76 6 2 68 26 137 53 69 26 127 49 129 51 2 1 -8 78 -23 170 -41 265 -58 415
-65 602 -3 102 -10 175 -16 177 -5 1 -19 -1 -30 -6z m-171 -437 c4 -109 10
-213 13 -231 5 -29 2 -33 -28 -46 -24 -10 -35 -11 -38 -4 -6 19 32 487 39 483
4 -3 10 -94 14 -202z"/>
<path d="M3235 3044 c-164 -58 -314 -304 -345 -566 -20 -171 15 -317 97 -408
81 -90 190 -104 318 -41 170 84 305 337 305 570 0 45 -1 81 -3 81 -5 0 -245
-88 -303 -111 l-52 -21 -7 -89 c-4 -50 -5 -92 -3 -94 3 -3 41 9 87 25 96 35
91 34 91 14 0 -33 -63 -133 -99 -158 -70 -49 -164 -28 -197 43 -22 47 -14 171
18 272 50 154 139 242 226 223 20 -4 40 -8 44 -8 9 -1 118 150 118 165 0 24
-50 77 -93 98 -51 25 -141 27 -202 5z"/>
<path d="M2771 2935 c-64 -21 -97 -38 -102 -51 -4 -10 -8 -129 -8 -263 -1
-148 -5 -241 -10 -235 -24 25 -121 430 -121 507 0 19 -4 27 -12 24 -7 -3 -54
-19 -104 -37 -50 -17 -98 -36 -107 -43 -13 -10 -16 -77 -19 -514 l-5 -502 31
13 c17 8 64 29 104 47 l74 33 -4 148 c-2 81 0 148 3 148 4 0 42 -60 85 -134
l77 -134 81 35 c45 19 91 39 104 44 22 8 22 9 22 256 1 226 5 326 26 601 6 76
4 92 -7 91 -8 -1 -56 -16 -108 -34z"/>
<path d="M2110 2832 l-105 -37 -5 -475 c-3 -261 -5 -476 -4 -478 0 -1 45 18
100 42 l99 44 7 343 c3 189 11 389 17 444 13 120 13 155 4 154 -5 0 -55 -17
-113 -37z"/>
<path d="M1625 2748 c-143 -33 -261 -62 -263 -63 -3 -3 27 -238 31 -242 2 -1
56 14 122 33 66 19 121 34 123 34 10 0 -13 -36 -120 -185 -63 -88 -148 -209
-189 -270 l-76 -110 20 -115 c10 -63 20 -117 22 -118 2 -2 68 12 147 32 79 19
204 47 278 61 74 15 144 29 154 32 18 5 18 13 12 121 -4 64 -9 118 -11 121 -3
2 -70 -10 -149 -28 -188 -40 -183 -40 -155 7 26 42 253 371 311 449 l38 52 0
126 c0 113 -2 125 -17 124 -10 0 -135 -28 -278 -61z"/>
<path d="M1135 2734 c-5 -1 -96 -30 -201 -63 l-190 -61 -18 -142 c-24 -204
-60 -423 -107 -652 -22 -109 -38 -200 -36 -202 4 -4 250 70 266 80 6 4 11 24
11 44 0 63 9 78 50 92 21 7 43 9 49 6 6 -4 11 -38 11 -83 0 -56 3 -74 13 -70
6 3 68 27 137 53 69 26 127 49 129 50 2 2 -8 74 -23 161 -35 216 -54 385 -66
602 -5 101 -11 185 -12 186 -2 1 -7 1 -13 -1z m-190 -458 c3 -116 9 -219 11
-229 4 -13 -4 -21 -28 -31 -18 -8 -36 -12 -39 -8 -3 4 3 118 14 255 11 136 24
242 28 236 4 -6 10 -107 14 -223z"/>
<path d="M347 2608 c-22 -6 -100 -34 -175 -63 l-137 -52 1 -59 c0 -32 3 -246
7 -474 l8 -415 32 3 c67 6 155 33 235 73 150 73 307 257 313 364 4 76 -1 97
-30 126 -26 26 -36 29 -90 29 -34 0 -61 3 -61 6 0 3 17 26 39 50 21 24 56 77
77 117 33 62 38 83 42 154 l4 83 -35 35 c-34 34 -36 35 -114 34 -43 -1 -95 -6
-116 -11z m59 -263 c12 -31 -87 -185 -119 -185 -9 0 -11 25 -9 86 4 85 4 86
35 99 42 19 86 19 93 0z m42 -363 c5 -35 -39 -84 -106 -120 -33 -18 -63 -32
-66 -32 -3 0 -6 31 -6 69 l0 70 53 20 c69 27 121 24 125 -7z"/>
<path d="M4390 2415 c-92 -29 -167 -136 -139 -198 30 -65 135 -61 227 10 42
32 75 102 66 138 -13 50 -81 73 -154 50z"/>
<path d="M4027 2040 c-131 -21 -240 -40 -242 -42 -12 -12 30 -113 61 -148 74
-82 175 -103 310 -64 18 5 34 -10 92 -83 95 -117 135 -197 140 -278 4 -58 2
-64 -27 -98 -49 -55 -111 -72 -256 -71 -182 1 -385 42 -689 141 -178 58 -346
119 -358 131 -4 4 -1 48 6 97 8 50 17 130 21 179 l7 89 -63 -7 c-127 -15 -114
0 -126 -147 -6 -72 -13 -133 -17 -136 -9 -9 -296 120 -293 131 2 5 45 32 96
59 50 27 91 51 89 52 -6 5 -607 -90 -614 -98 -4 -4 -1 -7 6 -7 9 0 10 -3 4 -9
-13 -14 -274 -131 -290 -131 -8 0 -14 10 -14 24 0 13 -3 37 -6 53 l-6 29 -80
-13 c-44 -7 -82 -14 -85 -16 -2 -3 1 -33 7 -68 5 -35 10 -69 10 -75 0 -11
-282 -122 -353 -139 -25 -7 -33 -3 -57 27 -37 44 -117 87 -178 95 -134 16
-265 -81 -287 -214 -6 -41 -8 -42 -51 -49 -25 -3 -98 -5 -162 -2 -101 3 -123
7 -161 28 -67 38 -86 70 -85 141 1 63 0 64 -40 49 -29 -11 -30 -18 -15 -91 8
-38 22 -64 52 -96 75 -81 173 -113 366 -119 l124 -3 33 -39 c68 -80 206 -109
305 -65 60 27 114 84 137 146 l19 51 84 22 c46 13 130 38 187 57 56 19 104 31
106 28 2 -3 9 -33 16 -66 52 -264 127 -499 220 -690 77 -159 146 -257 223
-314 72 -55 115 -71 189 -71 198 0 377 224 517 648 44 133 121 434 121 475 0
9 4 18 8 21 5 3 63 -13 129 -34 282 -92 561 -149 775 -157 173 -7 275 6 363
46 197 90 207 279 28 549 l-64 97 16 34 c31 65 32 182 2 180 -6 0 -119 -18
-250 -39z m-1511 -463 c65 -30 172 -75 237 -102 64 -26 117 -51 117 -54 0 -4
-14 -87 -30 -186 -74 -442 -188 -763 -318 -895 -102 -104 -181 -104 -282 -1
-133 137 -249 467 -325 930 -13 85 -24 155 -22 156 1 1 61 26 132 55 72 30
177 75 235 102 58 26 112 48 121 48 8 0 69 -24 135 -53z"/>
</g>
</svg>
